<?xml version="1.0" standalone="no"?>
<!DOCTYPE svg PUBLIC "-//W3C//DTD SVG 20010904//EN"
 "http://www.w3.org/TR/2001/REC-SVG-20010904/DTD/svg10.dtd">
<svg version="1.0" xmlns="http://www.w3.org/2000/svg"
 width="408.000000pt" height="408.000000pt" viewBox="0 0 408.000000 408.000000"
 preserveAspectRatio="xMidYMid meet">
<metadata>
Created by potrace 1.14, written by Peter Selinger 2001-2017
</metadata>
<g transform="translate(0.000000,408.000000) scale(0.100000,-0.100000)"
fill="#000000" stroke="none">
<path d="M1858 4065 c-2 -1 -33 -6 -70 -9 -66 -7 -88 -10 -138 -21 -14 -3 -50
-10 -80 -16 -149 -29 -423 -140 -584 -236 -109 -65 -279 -197 -372 -289 -331
-325 -533 -728 -599 -1194 -13 -95 -14 -440 -1 -525 93 -604 405 -1103 895
-1428 197 -130 472 -248 686 -292 197 -40 253 -43 877 -44 578 -1 608 -1 617
17 5 10 6 24 2 30 -4 7 -68 28 -142 46 -168 43 -344 101 -454 150 -27 13 -79
36 -115 52 -213 94 -477 267 -639 419 -272 255 -431 514 -547 886 -29 96 -41
150 -73 329 -10 59 -8 421 3 480 64 338 192 551 416 695 116 74 245 124 313
120 15 -1 27 3 27 9 0 6 5 5 12 -2 7 -7 25 -12 40 -12 112 0 299 -194 423
-439 80 -158 116 -280 121 -409 6 -154 -55 -246 -228 -345 -136 -78 -209 -187
-214 -319 -5 -115 48 -279 144 -443 75 -131 232 -296 380 -402 167 -119 300
-170 463 -176 298 -12 591 122 764 347 111 146 222 436 251 656 2 19 8 64 13
100 10 69 7 421 -3 505 -24 183 -100 435 -186 614 -300 621 -876 1039 -1565
1135 -84 12 -427 20 -437 11z"/>
</g>
</svg>
